<svg xmlns="http://www.w3.org/2000/svg" version="1.1" xmlns:xlink="http://www.w3.org/1999/xlink" xmlns:svgjs="http://svgjs.dev/svgjs" width="1440" height="560" preserveAspectRatio="none" viewBox="0 0 1440 560"><g mask="url(&quot;#SvgjsMask1055&quot;)" fill="none"><rect width="1440" height="560" x="0" y="0" fill="rgba(199, 209, 215, 1)"></rect><path d="M0,309.208C75.952,326.841,150.971,373.981,225.39,350.713C304.334,326.03,374.091,261.441,401.91,183.546C429.244,107.008,402.686,21.099,369.619,-53.143C341.648,-115.943,272.749,-145.545,231.005,-200.167C185.309,-259.959,179.532,-351.034,113.866,-387.793C45.665,-425.971,-40.795,-416.361,-115.774,-394.289C-190.723,-372.225,-266.155,-332.122,-305.174,-264.434C-342.418,-199.825,-317.77,-120.119,-316.805,-45.55C-315.998,16.815,-327.48,81.017,-299.978,136.996C-272.824,192.268,-220.274,228.99,-166.867,259.65C-115.506,289.136,-57.689,295.815,0,309.208" fill="#97a9b5"></path><path d="M1440 1116.387C1542.874 1116.673 1592.606 987.531 1676.432 927.896 1754.921 872.058 1875.386 864.722 1916.32 777.528 1957.2530000000002 690.336 1911.6689999999999 587.442 1878.761 496.916 1850.731 419.80899999999997 1782.016 369.911 1742.09 298.237 1688.083 201.286 1708.546 38.93399999999997 1603.576 2.9120000000000346 1500.425-32.485000000000014 1422.004 113.303 1320.6779999999999 153.62599999999998 1232.637 188.66199999999998 1127.595 167.19400000000002 1050.905 222.848 965.1510000000001 285.08 873.53 372.528 873.033 478.48199999999997 872.532 585.285 984.98 652.925 1048.484 738.799 1097.8600000000001 805.568 1144.636 868.9390000000001 1204.41 926.586 1278.498 998.039 1337.07 1116.101 1440 1116.387" fill="#f7f9fa"></path></g><defs><mask id="SvgjsMask1055"><rect width="1440" height="560" fill="#ffffff"></rect></mask></defs></svg>